<svg width="58" height="71" viewBox="0 0 58 71" fill="none" xmlns="http://www.w3.org/2000/svg">
<path d="M10.3696 14.7229C10.1016 14.7229 9.84081 14.6142 9.65249 14.4259C9.46271 14.2361 9.35406 13.9753 9.35406 13.7088C9.35406 13.6421 9.36131 13.5755 9.37435 13.5103C9.38738 13.4451 9.40767 13.3814 9.43229 13.3205C9.45837 13.2597 9.48879 13.2003 9.52645 13.1452C9.56267 13.0902 9.60468 13.038 9.65249 12.9917C9.69884 12.9453 9.75099 12.9019 9.80604 12.8656C9.86109 12.8294 9.92049 12.7976 9.98133 12.7715C10.0422 12.7469 10.1059 12.728 10.1711 12.715C10.3015 12.6875 10.4362 12.6875 10.5666 12.715C10.6318 12.728 10.6955 12.7469 10.7564 12.7715C10.8172 12.7976 10.8766 12.8294 10.9316 12.8656C10.9867 12.9019 11.0388 12.9453 11.0852 12.9917C11.133 13.038 11.175 13.0902 11.2112 13.1452C11.2489 13.2003 11.2793 13.2597 11.3054 13.3205C11.33 13.3814 11.3503 13.4451 11.3633 13.5103C11.3764 13.5755 11.3822 13.6421 11.3822 13.7088C11.3822 13.9753 11.275 14.2361 11.0852 14.4259C11.0388 14.4722 10.9867 14.5142 10.9316 14.5519C10.8766 14.5881 10.8172 14.62 10.7564 14.6446C10.6955 14.6707 10.6318 14.6895 10.5666 14.7026C10.5014 14.7156 10.4348 14.7229 10.3696 14.7229Z" fill="#444444"/>
<path d="M56.4281 70.2598H25.6442C25.0836 70.2598 24.6301 69.8064 24.6301 69.2458V23.9652H10.3681C9.80749 23.9652 9.35406 23.5117 9.35406 22.9511V18.3009C9.35406 17.7403 9.80749 17.2869 10.3681 17.2869C10.9288 17.2869 11.3822 17.7403 11.3822 18.3009V21.937H25.6442C26.2048 21.937 26.6582 22.3905 26.6582 22.9511V68.2317H55.4126V56.2832C55.4126 55.7226 55.866 55.2692 56.4267 55.2692C56.9873 55.2692 57.4407 55.7226 57.4407 56.2832V69.2458C57.4422 69.8064 56.9873 70.2598 56.4281 70.2598Z" fill="#444444"/>
<path d="M56.4281 54.1045C56.3614 54.1045 56.2948 54.0973 56.2296 54.0842C56.1644 54.0712 56.1007 54.0524 56.0398 54.0263C55.979 54.0017 55.9196 53.9698 55.8645 53.9336C55.8095 53.8959 55.7573 53.8539 55.711 53.8075C55.6632 53.7612 55.6212 53.709 55.5849 53.6525C55.5473 53.5975 55.5169 53.5395 55.4908 53.4787C55.4662 53.4164 55.4459 53.3527 55.4328 53.2889C55.4198 53.2237 55.414 53.1571 55.414 53.0905C55.414 53.0238 55.4198 52.9572 55.4328 52.892C55.4459 52.8268 55.4662 52.7631 55.4908 52.7022C55.5169 52.6414 55.5473 52.582 55.5849 52.5269C55.6212 52.4719 55.6632 52.4197 55.711 52.3734C55.7573 52.3256 55.8095 52.2836 55.8645 52.2474C55.9196 52.2111 55.979 52.1793 56.0398 52.1532C56.1007 52.1286 56.1644 52.1083 56.2296 52.0952C56.36 52.0692 56.4947 52.0692 56.6251 52.0952C56.6903 52.1083 56.754 52.1286 56.8149 52.1532C56.8757 52.1793 56.9351 52.2111 56.9901 52.2474C57.0452 52.2836 57.0973 52.3256 57.1437 52.3734C57.1915 52.4197 57.2335 52.4719 57.2697 52.5269C57.3074 52.582 57.3378 52.6414 57.3639 52.7022C57.3885 52.7631 57.4088 52.8268 57.4218 52.892C57.4349 52.9572 57.4407 53.0238 57.4407 53.0905C57.4407 53.1571 57.4349 53.2237 57.4218 53.2889C57.4088 53.3527 57.3885 53.4164 57.3639 53.4787C57.3378 53.5395 57.3074 53.5975 57.2697 53.6525C57.2335 53.709 57.1915 53.7612 57.1437 53.8075C57.0973 53.8539 57.0452 53.8959 56.9901 53.9336C56.9351 53.9698 56.8757 54.0017 56.8149 54.0263C56.754 54.0524 56.6903 54.0712 56.6251 54.0842C56.5599 54.0973 56.4932 54.1045 56.4281 54.1045Z" fill="#444444"/>
<path d="M56.4281 50.2205C55.8675 50.2205 55.414 49.7671 55.414 49.2065V2.02812H11.3822V10.5433C11.3822 11.1039 10.9288 11.5574 10.3681 11.5574C9.80749 11.5574 9.35406 11.1039 9.35406 10.5433V1.01406C9.35406 0.453429 9.80749 0 10.3681 0H56.4267C56.9873 0 57.4407 0.453429 57.4407 1.01406V49.2065C57.4422 49.7671 56.9873 50.2205 56.4281 50.2205Z" fill="#444444"/>
<path d="M11.0388 36.1642H6.74788C6.18725 36.1642 5.73383 35.7108 5.73383 35.1502V30.8593C5.73383 30.2986 6.18725 29.8452 6.74788 29.8452H11.0388C11.5994 29.8452 12.0529 30.2986 12.0529 30.8593V35.1502C12.0529 35.7108 11.5994 36.1642 11.0388 36.1642ZM7.76194 34.1361H10.0247V31.8733H7.76194V34.1361Z" fill="#7692FF"/>
<path d="M20.471 36.1642H16.1801C15.6195 36.1642 15.1661 35.7108 15.1661 35.1502V30.8593C15.1661 30.2986 15.6195 29.8452 16.1801 29.8452H20.471C21.0317 29.8452 21.4851 30.2986 21.4851 30.8593V35.1502C21.4851 35.7108 21.0302 36.1642 20.471 36.1642ZM17.1942 34.1361H19.457V31.8733H17.1942V34.1361Z" fill="#7692FF"/>
<path d="M11.0388 44.8938H6.74788C6.18725 44.8938 5.73383 44.4403 5.73383 43.8797V39.5888C5.73383 39.0281 6.18725 38.5747 6.74788 38.5747H11.0388C11.5994 38.5747 12.0529 39.0281 12.0529 39.5888V43.8797C12.0529 44.4389 11.5994 44.8938 11.0388 44.8938ZM7.76194 42.8656H10.0247V40.6028H7.76194V42.8656Z" fill="#7692FF"/>
<path d="M20.471 44.8938H16.1801C15.6195 44.8938 15.1661 44.4403 15.1661 43.8797V39.5888C15.1661 39.0281 15.6195 38.5747 16.1801 38.5747H20.471C21.0317 38.5747 21.4851 39.0281 21.4851 39.5888V43.8797C21.4851 44.4389 21.0302 44.8938 20.471 44.8938ZM17.1942 42.8656H19.457V40.6028H17.1942V42.8656Z" fill="#7692FF"/>
<path d="M11.0388 53.622H6.74788C6.18725 53.622 5.73383 53.1685 5.73383 52.6079V48.317C5.73383 47.7564 6.18725 47.303 6.74788 47.303H11.0388C11.5994 47.303 12.0529 47.7564 12.0529 48.317V52.6079C12.0529 53.1685 11.5994 53.622 11.0388 53.622ZM7.76194 51.5939H10.0247V49.3311H7.76194V51.5939Z" fill="#7692FF"/>
<path d="M20.471 53.622H16.1801C15.6195 53.622 15.1661 53.1685 15.1661 52.6079V48.317C15.1661 47.7564 15.6195 47.303 16.1801 47.303H20.471C21.0317 47.303 21.4851 47.7564 21.4851 48.317V52.6079C21.4851 53.1685 21.0302 53.622 20.471 53.622ZM17.1942 51.5939H19.457V49.3311H17.1942V51.5939Z" fill="#7692FF"/>
<path d="M11.0388 62.3515H6.74788C6.18725 62.3515 5.73383 61.898 5.73383 61.3374V57.0465C5.73383 56.4859 6.18725 56.0325 6.74788 56.0325H11.0388C11.5994 56.0325 12.0529 56.4859 12.0529 57.0465V61.3374C12.0529 61.8966 11.5994 62.3515 11.0388 62.3515ZM7.76194 60.3234H10.0247V58.0606H7.76194V60.3234Z" fill="#7692FF"/>
<path d="M20.471 62.3515H16.1801C15.6195 62.3515 15.1661 61.898 15.1661 61.3374V57.0465C15.1661 56.4859 15.6195 56.0325 16.1801 56.0325H20.471C21.0317 56.0325 21.4851 56.4859 21.4851 57.0465V61.3374C21.4851 61.8966 21.0302 62.3515 20.471 62.3515ZM17.1942 60.3234H19.457V58.0606H17.1942V60.3234Z" fill="#7692FF"/>
<path d="M36.5497 45.5748H32.4065C31.8459 45.5748 31.3925 45.1214 31.3925 44.5608V40.4176C31.3925 39.857 31.8459 39.4036 32.4065 39.4036H36.5497C37.1103 39.4036 37.5637 39.857 37.5637 40.4176V44.5608C37.5637 45.1214 37.1088 45.5748 36.5497 45.5748ZM33.4206 43.5467H35.5356V41.4317H33.4206V43.5467Z" fill="#444444"/>
<path d="M36.5497 55.0924H32.4065C31.8459 55.0924 31.3925 54.639 31.3925 54.0784V49.9352C31.3925 49.3746 31.8459 48.9211 32.4065 48.9211H36.5497C37.1103 48.9211 37.5637 49.3746 37.5637 49.9352V54.0784C37.5637 54.639 37.1088 55.0924 36.5497 55.0924ZM33.4206 53.0643H35.5356V50.9493H33.4206V53.0643Z" fill="#444444"/>
<path d="M36.5497 64.61H32.4065C31.8459 64.61 31.3925 64.1566 31.3925 63.5959V59.4528C31.3925 58.8921 31.8459 58.4387 32.4065 58.4387H36.5497C37.1103 58.4387 37.5637 58.8921 37.5637 59.4528V63.5959C37.5637 64.1551 37.1088 64.61 36.5497 64.61ZM33.4206 62.5819H35.5356V60.4668H33.4206V62.5819Z" fill="#444444"/>
<path d="M20.5768 10.3854H16.2989C15.7383 10.3854 15.2849 9.93193 15.2849 9.3713V5.09341C15.2849 4.53278 15.7383 4.07935 16.2989 4.07935H20.5768C21.1374 4.07935 21.5909 4.53278 21.5909 5.09341V9.3713C21.5909 9.93193 21.1374 10.3854 20.5768 10.3854ZM17.313 8.35724H19.5627V6.10747H17.313V8.35724Z" fill="#444444"/>
<path d="M30.7565 10.3854H26.4786C25.918 10.3854 25.4645 9.93193 25.4645 9.3713V5.09341C25.4645 4.53278 25.918 4.07935 26.4786 4.07935H30.7565C31.3171 4.07935 31.7706 4.53278 31.7706 5.09341V9.3713C31.7706 9.93193 31.3171 10.3854 30.7565 10.3854ZM27.4927 8.35724H29.7424V6.10747H27.4927V8.35724Z" fill="#444444"/>
<path d="M40.9347 10.3854H36.6568C36.0962 10.3854 35.6428 9.93193 35.6428 9.3713V5.09341C35.6428 4.53278 36.0962 4.07935 36.6568 4.07935H40.9347C41.4953 4.07935 41.9488 4.53278 41.9488 5.09341V9.3713C41.9488 9.93193 41.4953 10.3854 40.9347 10.3854ZM37.6709 8.35724H39.9207V6.10747H37.6709V8.35724Z" fill="#444444"/>
<path d="M51.7852 10.3854H47.5073C46.9467 10.3854 46.4932 9.93193 46.4932 9.3713V5.09341C46.4932 4.53278 46.9467 4.07935 47.5073 4.07935H51.7852C52.3458 4.07935 52.7992 4.53278 52.7992 5.09341V9.3713C52.7992 9.93193 52.3443 10.3854 51.7852 10.3854ZM48.5213 8.35724H50.7711V6.10747H48.5213V8.35724Z" fill="#444444"/>
<path d="M20.5768 19.315H16.2989C15.7383 19.315 15.2849 18.8615 15.2849 18.3009V14.0231C15.2849 13.4625 15.7383 13.009 16.2989 13.009H20.5768C21.1374 13.009 21.5909 13.4625 21.5909 14.0231V18.3009C21.5909 18.8615 21.1374 19.315 20.5768 19.315ZM17.313 17.2869H19.5627V15.0371H17.313V17.2869Z" fill="#444444"/>
<path d="M30.7565 19.315H26.4786C25.918 19.315 25.4645 18.8615 25.4645 18.3009V14.0231C25.4645 13.4625 25.918 13.009 26.4786 13.009H30.7565C31.3171 13.009 31.7706 13.4625 31.7706 14.0231V18.3009C31.7706 18.8615 31.3171 19.315 30.7565 19.315ZM27.4927 17.2869H29.7424V15.0371H27.4927V17.2869Z" fill="#444444"/>
<path d="M40.9347 19.315H36.6568C36.0962 19.315 35.6428 18.8615 35.6428 18.3009V14.0231C35.6428 13.4625 36.0962 13.009 36.6568 13.009H40.9347C41.4953 13.009 41.9488 13.4625 41.9488 14.0231V18.3009C41.9488 18.8615 41.4953 19.315 40.9347 19.315ZM37.6709 17.2869H39.9207V15.0371H37.6709V17.2869Z" fill="#444444"/>
<path d="M51.7852 19.315H47.5073C46.9467 19.315 46.4932 18.8615 46.4932 18.3009V14.0231C46.4932 13.4625 46.9467 13.009 47.5073 13.009H51.7852C52.3458 13.009 52.7992 13.4625 52.7992 14.0231V18.3009C52.7992 18.8615 52.3443 19.315 51.7852 19.315ZM48.5213 17.2869H50.7711V15.0371H48.5213V17.2869Z" fill="#444444"/>
<path d="M30.755 28.2445H29.1702C28.6096 28.2445 28.1562 27.791 28.1562 27.2304C28.1562 26.6698 28.6096 26.2163 29.1702 26.2163H29.741V23.9651H29.0587C28.498 23.9651 28.0446 23.5117 28.0446 22.9511C28.0446 22.3904 28.498 21.937 29.0587 21.937H30.755C31.3157 21.937 31.7691 22.3904 31.7691 22.9511V27.2304C31.7691 27.791 31.3157 28.2445 30.755 28.2445Z" fill="#444444"/>
<path d="M40.9347 28.2444H36.6568C36.0962 28.2444 35.6428 27.791 35.6428 27.2304V22.9525C35.6428 22.3919 36.0962 21.9385 36.6568 21.9385H40.9347C41.4953 21.9385 41.9488 22.3919 41.9488 22.9525V27.2304C41.9488 27.7896 41.4953 28.2444 40.9347 28.2444ZM37.6709 26.2163H39.9207V23.9666H37.6709V26.2163Z" fill="#444444"/>
<path d="M51.7852 28.2444H47.5073C46.9467 28.2444 46.4932 27.791 46.4932 27.2304V22.9525C46.4932 22.3919 46.9467 21.9385 47.5073 21.9385H51.7852C52.3458 21.9385 52.7992 22.3919 52.7992 22.9525V27.2304C52.7992 27.7896 52.3443 28.2444 51.7852 28.2444ZM48.5213 26.2163H50.7711V23.9666H48.5213V26.2163Z" fill="#444444"/>
<path d="M51.7852 37.1725H47.5073C46.9467 37.1725 46.4932 36.719 46.4932 36.1584V31.8805C46.4932 31.3199 46.9467 30.8665 47.5073 30.8665H51.7852C52.3458 30.8665 52.7992 31.3199 52.7992 31.8805V36.1584C52.7992 36.719 52.3443 37.1725 51.7852 37.1725ZM48.5213 35.1443H50.7711V32.8946H48.5213V35.1443Z" fill="#444444"/>
<path d="M51.7852 46.102H47.5073C46.9467 46.102 46.4932 45.6485 46.4932 45.0879V40.81C46.4932 40.2493 46.9467 39.7959 47.5073 39.7959H51.7852C52.3458 39.7959 52.7992 40.2493 52.7992 40.81V45.0879C52.7992 45.6485 52.3443 46.102 51.7852 46.102ZM48.5213 44.0738H50.7711V41.824H48.5213V44.0738Z" fill="#444444"/>
<path d="M51.7852 55.0316H47.5073C46.9467 55.0316 46.4932 54.5781 46.4932 54.0175V49.7396C46.4932 49.179 46.9467 48.7256 47.5073 48.7256H51.7852C52.3458 48.7256 52.7992 49.179 52.7992 49.7396V54.0175C52.7992 54.5767 52.3443 55.0316 51.7852 55.0316ZM48.5213 53.0034H50.7711V50.7537H48.5213V53.0034Z" fill="#444444"/>
<path d="M51.7852 63.9596H47.5073C46.9467 63.9596 46.4932 63.5061 46.4932 62.9455V58.6676C46.4932 58.107 46.9467 57.6536 47.5073 57.6536H51.7852C52.3458 57.6536 52.7992 58.107 52.7992 58.6676V62.9455C52.7992 63.5061 52.3443 63.9596 51.7852 63.9596ZM48.5213 61.9315H50.7711V59.6817H48.5213V61.9315Z" fill="#444444"/>
<path d="M43.312 70.2597H25.6442C25.0836 70.2597 24.6301 69.8063 24.6301 69.2456V34.7677C24.6301 34.2071 25.0836 33.7537 25.6442 33.7537H43.3106C43.8712 33.7537 44.3246 34.2071 44.3246 34.7677C44.3246 35.3283 43.8712 35.7818 43.3106 35.7818H26.6582V68.2316H42.2965V39.0717C42.2965 38.511 42.7499 38.0576 43.3106 38.0576C43.8712 38.0576 44.3246 38.511 44.3246 39.0717V69.2456C44.3261 69.8063 43.8712 70.2597 43.312 70.2597Z" fill="#444444"/>
<path d="M25.6442 70.2598H1.57332C1.01269 70.2598 0.559265 69.8064 0.559265 69.2457V22.9511C0.559265 22.3904 1.01269 21.937 1.57332 21.937H25.6442C26.2048 21.937 26.6582 22.3904 26.6582 22.9511V69.2457C26.6582 69.8064 26.2048 70.2598 25.6442 70.2598ZM2.58738 68.2317H24.6301V23.9651H2.58738V68.2317Z" fill="#444444"/>
</svg>
