<svg width="70" height="69" viewBox="0 0 70 69" fill="none" xmlns="http://www.w3.org/2000/svg">
<path d="M68.7259 0.33299C68.2744 -0.110997 67.5446 -0.110997 67.0931 0.33299L62.8125 4.54235H35.9271L2.12832 38.0526C1.35927 38.8088 0.935486 39.8161 0.935486 40.8857C0.935486 41.9554 1.35927 42.9626 2.12832 43.7188L25.7609 66.9583C26.5542 67.7384 27.5946 68.129 28.6373 68.129C29.6847 68.129 30.732 67.735 31.5345 66.947L64.4453 33.7092V6.14797L68.7259 1.93861C69.1774 1.49462 69.1774 0.776977 68.7259 0.33299ZM62.1359 32.7872L29.8902 65.3527C29.202 66.0295 28.0819 66.0295 27.3937 65.3527L3.7611 42.1132C3.07288 41.4364 3.07288 40.335 3.76456 39.6548L36.8901 6.81338H60.5031L54.9223 12.3013C54.0089 11.7063 52.9177 11.3555 51.7434 11.3555C48.5598 11.3555 45.9697 13.9024 45.9697 17.033C45.9697 20.1637 48.5598 22.7106 51.7434 22.7106C54.9269 22.7106 57.517 20.1637 57.517 17.033C57.517 15.8782 57.1602 14.8052 56.5551 13.907L62.1359 8.41901V32.7872ZM55.2075 17.033C55.2075 18.9112 53.6533 20.4396 51.7434 20.4396C49.8334 20.4396 48.2792 18.9112 48.2792 17.033C48.2792 15.1549 49.8334 13.6265 51.7434 13.6265C52.2768 13.6265 52.7757 13.7559 53.2272 13.9683L50.927 16.2302C50.4755 16.6742 50.4755 17.3919 50.927 17.8358C51.1521 18.0573 51.4478 18.1686 51.7434 18.1686C52.039 18.1686 52.3346 18.0573 52.5597 17.8358L54.86 15.5739C55.077 16.0179 55.2075 16.5084 55.2075 17.033Z" fill="#444444"/>
<path d="M33.3566 37.7109C34.0603 37.348 34.676 36.8036 35.1598 36.1684C35.5556 35.5786 35.8195 34.8981 35.9514 34.1722H38.0186C38.0186 34.1722 38.4144 33.6278 39.1181 32.539C39.1181 32.539 39.1181 32.4936 39.0741 32.4936H35.9075C35.7755 31.8131 35.5116 31.2233 35.0718 30.6789H38.0186C38.4144 30.1344 38.8102 29.59 39.1181 29.0002H28.0349C27.9909 29.0002 27.639 29.5447 26.9353 30.6335L26.9353 30.6789H29.8381C30.4098 30.6789 30.9376 30.815 31.4654 30.9964C32.2131 31.2233 32.8288 31.7677 33.2246 32.4482H28.0349C28.0349 32.4482 27.639 32.9926 26.9353 34.0815C26.9353 34.0815 26.9353 34.1268 26.9793 34.1268H33.5765C33.5765 34.399 33.5325 34.6259 33.4445 34.8527C32.8728 36.486 31.3334 37.3026 28.9145 37.3026C28.4747 37.3026 27.9909 37.3026 27.5511 37.2119L27.5511 37.2572L27.5511 38.8451C27.5511 38.8905 28.8594 39.7829 33.2135 45.0002H35.5885C35.6324 45.0002 35.6324 45.0002 35.6324 44.9549L35.6324 44.6373L31.0256 39.5256C30.7617 39.2534 30.4978 38.8905 30.2779 38.5275C31.3334 38.5275 32.433 38.2553 33.3566 37.7109Z" fill="#7692FF"/>
<circle cx="33.334" cy="36.3989" r="12.3986" stroke="#333333" stroke-width="2"/>
</svg>
