<svg width="74" height="68" viewBox="0 0 74 68" fill="none" xmlns="http://www.w3.org/2000/svg">
<path d="M73.5069 15.3239C73.1596 15.0918 72.6965 14.9757 72.3493 15.2079L48.7345 23.6825L32.181 17.6458C33.107 15.3239 33.5701 13.2343 33.5701 11.493C33.5701 8.35851 32.4125 5.57234 30.2131 3.36662C28.0136 1.1609 25.1197 0 22.1099 0C15.7432 0 10.6498 5.10798 10.6498 11.493C10.6498 13.6987 11.4601 16.3688 12.8492 19.6193L0.810312 23.6825C0.347276 23.9146 0 24.379 0 24.8434V66.6359C0 67.1003 0.231518 67.4486 0.578794 67.6808C0.810312 67.7968 1.04183 67.9129 1.27335 67.9129C1.38911 67.9129 1.62062 67.9129 1.73638 67.7969L25.3512 59.4383L48.2714 67.9129C48.5029 68.029 48.8502 68.029 49.0817 67.9129L73.1596 59.3222C73.6226 59.0901 73.9699 58.6257 73.9699 58.1613V16.3688C74.0856 15.9044 73.8541 15.5561 73.5069 15.3239ZM22.1099 2.32181C24.5409 2.32181 26.7403 3.25053 28.3609 4.99189C30.0973 6.61716 31.0234 8.93897 31.0234 11.2608C31.0234 12.886 30.4446 15.0918 29.287 17.6458C27.2033 22.2894 23.7306 27.1652 22.1099 29.3709C21.8784 29.1387 21.7627 28.9065 21.5311 28.5583C20.0263 26.4686 17.5953 22.9859 15.859 19.3871C14.1226 16.0205 13.3123 13.2343 13.3123 11.1447C13.1965 6.38498 17.2481 2.32181 22.1099 2.32181ZM71.5389 57.2326L48.7345 65.3589L25.8142 56.8843C25.6985 56.8843 25.4669 56.7682 25.3512 56.7682C25.2354 56.7682 25.0039 56.7682 24.8881 56.8843L2.54669 64.8946V25.7721L14.1226 21.7089C14.1226 21.7089 14.1226 21.7089 14.1226 21.825C14.2383 21.9411 14.2383 22.0572 14.3541 22.1733C14.4699 22.4055 14.5856 22.6376 14.7014 22.8698C14.8171 22.9859 14.8171 23.102 14.9329 23.2181C15.0486 23.4503 15.1644 23.6825 15.2802 23.9146C15.3959 24.0307 15.3959 24.1468 15.5117 24.2629C15.6274 24.4951 15.7432 24.7273 15.859 24.8434C15.9747 24.9595 15.9747 25.0755 16.0905 25.1916C16.2062 25.4238 16.322 25.5399 16.4378 25.7721C16.5535 25.8882 16.5535 26.0043 16.6693 26.1204C16.785 26.3525 16.9008 26.4686 17.0165 26.7008C17.1323 26.8169 17.1323 26.933 17.2481 27.0491C17.3638 27.2813 17.4796 27.3974 17.5953 27.6295C17.7111 27.7456 17.7111 27.8617 17.8269 27.9778C17.9426 28.21 18.0584 28.3261 18.1741 28.5583C18.2899 28.6744 18.2899 28.7904 18.4057 28.7904C18.5214 29.0226 18.6372 29.1387 18.7529 29.2548C18.7529 29.3709 18.8687 29.3709 18.8687 29.487C18.9844 29.7192 19.1002 29.8353 19.216 29.9513L19.3317 30.0674C19.4475 30.1835 19.5632 30.4157 19.679 30.5318L19.7948 30.6479C19.9105 30.764 20.0263 30.9962 20.142 31.1123C20.2578 31.2283 20.3736 31.3444 20.4893 31.4605C20.7208 31.8088 20.9523 32.041 20.9523 32.1571C21.1839 32.5053 21.5311 32.6214 21.9942 32.6214C22.3415 32.6214 22.6887 32.3892 23.036 32.1571C23.036 32.1571 23.1518 32.041 23.3833 31.8088L23.499 31.6927C23.6148 31.5766 23.6148 31.5766 23.7306 31.4605L23.8463 31.3444C23.9621 31.2283 23.9621 31.1123 24.0778 30.9962C24.0778 30.8801 24.1936 30.8801 24.1936 30.764C24.3094 30.6479 24.4251 30.5318 24.4251 30.4157C24.5409 30.2996 24.5409 30.1835 24.6566 30.0674C24.7724 29.9513 24.8881 29.8353 25.0039 29.6031C25.1197 29.487 25.1197 29.3709 25.2354 29.2548C25.3512 29.1387 25.4669 29.0226 25.5827 28.7904C25.6985 28.6744 25.8142 28.5583 25.8142 28.4422C25.93 28.3261 26.0457 28.0939 26.1615 27.9778C26.2773 27.8617 26.393 27.6295 26.5088 27.5134C26.6245 27.3974 26.7403 27.1652 26.856 27.0491C26.9718 26.933 27.0876 26.7008 27.2033 26.5847C27.3191 26.3525 27.4348 26.2365 27.5506 26.0043C27.6664 25.8882 27.7821 25.656 27.8979 25.5399C28.0136 25.3077 28.1294 25.1916 28.2452 24.9595C28.3609 24.7273 28.4767 24.6112 28.5924 24.379C28.7082 24.1468 28.8239 24.0307 28.9397 23.7986C29.0555 23.5664 29.1712 23.4503 29.287 23.2181C29.4027 22.9859 29.5185 22.8698 29.6343 22.6376C29.75 22.4055 29.8658 22.2894 29.9815 22.0572C30.0973 21.825 30.2131 21.7089 30.3288 21.4767C30.4446 21.2446 30.5603 21.1285 30.6761 20.8963C30.7918 20.6641 30.9076 20.4319 31.0234 20.3158C31.1391 20.0837 31.2549 19.9676 31.2549 19.7354C31.2549 19.7354 31.2549 19.7354 31.2549 19.6193L48.3872 25.8882C48.6187 26.0043 48.966 26.0043 49.1975 25.8882L71.5389 17.8779V57.2326Z" fill="#444444"/>
<path d="M60.7733 45.9718C61.0048 46.0879 61.3521 46.0879 61.5836 46.0879C62.2781 46.0879 62.9727 45.8557 63.5515 45.5074C64.3618 44.927 64.9406 44.1143 65.1721 43.1856C65.4036 42.2569 65.1721 41.2121 64.7091 40.3995C64.1303 39.5868 63.32 39.0064 62.3939 38.7742C60.426 38.3099 58.3423 39.5868 57.8793 41.5604C57.6478 42.4891 57.8793 43.5339 58.3423 44.3465C59.0369 45.1591 59.8472 45.7396 60.7733 45.9718ZM60.426 42.0247C60.5418 41.3282 61.2363 40.9799 61.8151 41.096C62.1624 41.2121 62.3939 41.3282 62.5097 41.6765C62.6254 41.9086 62.7412 42.2569 62.6254 42.6052C62.5097 42.9534 62.3939 43.1856 62.0466 43.3017C61.8151 43.4178 61.4678 43.5339 61.1206 43.4178C60.7733 43.3017 60.5418 43.1856 60.426 42.8374C60.426 42.6052 60.426 42.373 60.426 42.0247Z" fill="#7692FF"/>
<path d="M12.7337 42.1408L11.9234 42.6052L11.4603 41.7926C11.1131 41.2121 10.3027 40.9799 9.72393 41.4443C9.14513 41.7926 8.91361 42.6052 9.37665 43.1857L9.8397 43.9983L9.02937 44.4626C8.45057 44.8109 8.21905 45.6236 8.68209 46.204C8.79785 46.6684 9.26089 46.7845 9.60818 46.7845C9.8397 46.7845 10.0712 46.6684 10.3027 46.5523L11.1131 46.0879L11.5761 46.9005C11.8076 47.2488 12.2707 47.481 12.6179 47.481C12.8495 47.481 13.081 47.3649 13.3125 47.2488C13.8913 46.9005 14.1228 46.0879 13.6598 45.5075L13.1967 44.6948L14.0071 44.2305C14.5859 43.8822 14.8174 43.0696 14.3543 42.4891C14.1228 41.9087 13.3125 41.7926 12.7337 42.1408Z" fill="#7692FF"/>
<path d="M24.6566 45.6236C23.1518 45.6236 21.1839 45.3914 19.9105 45.0432C19.216 44.9271 18.5214 45.3914 18.4057 46.088C18.2899 46.7845 18.7529 47.4811 19.4475 47.5972C20.7208 47.8293 22.8045 48.1776 24.6566 48.1776C25.3512 48.1776 25.93 47.5972 25.93 46.9006C25.93 46.2041 25.3512 45.6236 24.6566 45.6236Z" fill="#7692FF"/>
<path d="M34.1489 41.212C33.3386 42.3729 32.4125 43.3017 31.2549 43.9982C30.9076 44.2304 30.4446 44.4625 29.9815 44.6947C29.287 44.9269 29.0554 45.7395 29.287 46.4361C29.5185 46.9004 29.9815 47.2487 30.4446 47.2487C30.5603 47.2487 30.7918 47.2487 30.9076 47.1326C31.4864 46.9004 31.9494 46.6683 32.4125 46.32C33.8016 45.3913 34.9592 44.3465 36.0011 42.9534C36.4641 42.3729 36.3483 41.5603 35.7695 41.212C35.4223 40.5155 34.6119 40.6316 34.1489 41.212Z" fill="#7692FF"/>
<path d="M43.4096 32.8535C42.1362 32.8535 41.4417 33.2018 40.7471 33.434C39.1265 34.1305 37.7374 35.6397 37.3901 36.1041C36.9271 36.6845 37.0429 37.4971 37.5059 37.9615C37.7374 38.1937 38.0847 38.3098 38.3162 38.3098C38.6635 38.3098 39.0108 38.1937 39.2423 37.8454C39.8211 37.1489 40.7471 36.3362 41.6732 35.8719C42.3677 35.6397 42.5993 35.5236 43.4096 35.4075C44.1041 35.4075 44.6829 34.8271 44.6829 34.1305C44.6829 33.434 44.1041 32.8535 43.4096 32.8535Z" fill="#7692FF"/>
<path d="M48.1558 34.8272C47.9243 35.5238 48.1558 36.2203 48.8504 36.5686C50.1237 37.149 51.9759 38.0778 53.365 39.1226C53.5966 39.2387 53.8281 39.3548 54.0596 39.3548C54.5226 39.3548 54.8699 39.1226 55.1014 38.7743C55.4487 38.1939 55.333 37.3812 54.7542 37.033C53.1335 35.9881 51.2813 34.9433 49.7765 34.3629C49.1977 33.8985 48.5031 34.2468 48.1558 34.8272Z" fill="#7692FF"/>
<path d="M22.11 14.3954C24.3095 14.3954 26.0459 12.654 26.0459 10.4483C26.0459 8.24258 24.3095 6.50122 22.11 6.50122C19.9106 6.50122 18.1742 8.24258 18.1742 10.4483C18.1742 12.654 20.0263 14.3954 22.11 14.3954ZM22.11 9.05522C22.8046 9.05522 23.4992 9.63567 23.4992 10.4483C23.4992 11.1448 22.9204 11.8414 22.11 11.8414C21.4155 11.8414 20.7209 11.2609 20.7209 10.4483C20.8367 9.75176 21.4155 9.05522 22.11 9.05522Z" fill="#444444"/>
</svg>
