<svg width="58" height="69" viewBox="0 0 58 69" fill="none" xmlns="http://www.w3.org/2000/svg">
<path d="M11.3958 22.7026C11.3537 22.7474 11.3121 22.7923 11.2702 22.8374C11.1816 22.9329 11.0937 23.029 11.0066 23.1259C10.9651 23.1717 10.9245 23.2182 10.8837 23.2644C10.797 23.3622 10.7107 23.4603 10.6256 23.5594C10.5866 23.6049 10.5482 23.6509 10.5096 23.6965C10.4237 23.7981 10.338 23.8997 10.2537 24.0026C10.2195 24.0444 10.1861 24.0866 10.1521 24.1285C10.0644 24.2369 9.97699 24.3452 9.89127 24.4549C9.86906 24.4831 9.84778 24.5117 9.82588 24.5401C9.51924 24.9358 9.22395 25.3404 8.94079 25.7541C8.92361 25.7794 8.90549 25.8045 8.88831 25.8299C8.81756 25.934 8.74855 26.0394 8.67937 26.1447C8.64108 26.203 8.60232 26.2607 8.5645 26.3191C8.5021 26.4156 8.44143 26.5131 8.38045 26.6106C8.33759 26.6792 8.29426 26.7473 8.25203 26.8163C8.19452 26.9102 8.1381 27.005 8.08169 27.0999C8.03804 27.1733 7.99408 27.2466 7.95122 27.3203C7.89717 27.413 7.84438 27.5063 7.7916 27.5997C7.74779 27.6773 7.70383 27.7551 7.66081 27.8332C7.61023 27.9251 7.56044 28.0175 7.51112 28.11C7.46794 28.1906 7.42508 28.2715 7.38285 28.3528C7.33511 28.4443 7.28799 28.5363 7.24135 28.6287C7.19896 28.7124 7.15736 28.7965 7.11576 28.881C7.07117 28.972 7.02673 29.0633 6.98293 29.155C6.94164 29.2418 6.90115 29.3289 6.86096 29.4162C6.81889 29.5068 6.77713 29.5976 6.73617 29.689C6.69583 29.7788 6.65659 29.8694 6.61751 29.9599C6.57843 30.0497 6.53936 30.1397 6.50138 30.23C6.46183 30.3242 6.4237 30.419 6.38525 30.5137C6.34964 30.6017 6.31355 30.6893 6.27889 30.7777C6.23949 30.8781 6.20183 30.9792 6.1637 31.0802C6.13203 31.1644 6.09941 31.248 6.06852 31.3327C6.02488 31.4521 5.98328 31.5723 5.94136 31.6926C5.9182 31.7594 5.89377 31.8255 5.87124 31.8925C5.80853 32.0778 5.74802 32.2639 5.68956 32.4511C5.6675 32.5212 5.64733 32.5921 5.62606 32.6624C5.5895 32.7833 5.55263 32.904 5.5178 33.0255C5.49464 33.1063 5.47321 33.1876 5.45083 33.2688C5.41979 33.381 5.38859 33.4932 5.35928 33.606C5.33722 33.6906 5.31658 33.7758 5.29547 33.8608C5.26805 33.9709 5.24047 34.0811 5.21447 34.1918C5.19399 34.2793 5.17461 34.3669 5.15507 34.4547C5.13064 34.5637 5.10638 34.6729 5.08353 34.7824C5.06478 34.8718 5.04713 34.9614 5.02916 35.0509C5.00758 35.1601 4.98646 35.2695 4.96613 35.3792C4.94959 35.4695 4.93367 35.5597 4.91792 35.6505C4.89885 35.7606 4.88057 35.8709 4.86277 35.9817C4.84843 36.0722 4.8344 36.1626 4.82101 36.2535C4.80446 36.3654 4.78886 36.4776 4.77374 36.5901C4.7616 36.6804 4.74963 36.7707 4.73844 36.8615C4.72442 36.9755 4.71149 37.0898 4.69905 37.2043C4.68912 37.294 4.67935 37.3837 4.67037 37.4735C4.65902 37.5907 4.64894 37.7084 4.63901 37.8261C4.63161 37.9137 4.62373 38.0012 4.61727 38.0891C4.60813 38.2131 4.60088 38.3376 4.59363 38.4621C4.5889 38.5442 4.58323 38.626 4.57913 38.7082C4.57236 38.8472 4.56779 38.9868 4.56306 39.1263C4.56085 39.1948 4.55755 39.2629 4.55581 39.3316C4.55077 39.5401 4.54778 39.749 4.54778 39.9587C4.54778 53.8618 15.8588 65.173 29.762 65.173C43.6653 65.173 54.9762 53.862 54.9762 39.9587C54.9762 39.749 54.9734 39.5401 54.9682 39.3316C54.9666 39.263 54.9633 39.195 54.961 39.1264C54.9566 38.9868 54.9518 38.8472 54.945 38.7082C54.9409 38.6261 54.9353 38.5442 54.9305 38.4622C54.9231 38.3376 54.9159 38.2131 54.9068 38.0891C54.9005 38.0012 54.8924 37.9139 54.885 37.8263C54.8751 37.7084 54.8652 37.5907 54.8537 37.4733C54.8448 37.3837 54.8349 37.2942 54.8251 37.2047C54.8127 37.0899 54.7998 36.9755 54.7857 36.8613C54.7746 36.7709 54.7627 36.6807 54.7504 36.5904C54.7353 36.4778 54.7197 36.3654 54.7032 36.2532C54.6898 36.1628 54.6758 36.0723 54.6614 35.982C54.6438 35.8713 54.6253 35.7608 54.6063 35.6505C54.5905 35.5599 54.5746 35.4695 54.5579 35.3792C54.5377 35.2696 54.5164 35.1603 54.495 35.0512C54.4774 34.9617 54.4594 34.8721 54.4407 34.7827C54.4176 34.6732 54.3935 34.5639 54.3691 34.4547C54.3496 34.3669 54.3302 34.2791 54.3095 34.1918C54.2837 34.0814 54.2563 33.9717 54.2289 33.8619C54.2076 33.7765 54.1868 33.6911 54.1647 33.606C54.1353 33.4933 54.1044 33.3814 54.0735 33.2694C54.0511 33.1881 54.0295 33.1066 54.0064 33.0256C53.9715 32.9043 53.9348 32.7838 53.8983 32.6632C53.8768 32.5926 53.8565 32.5217 53.8346 32.4513C53.7762 32.2641 53.7157 32.078 53.6529 31.8927C53.6304 31.8262 53.6063 31.7605 53.5833 31.6941C53.5412 31.5733 53.4995 31.4526 53.4557 31.3325C53.4249 31.2487 53.3928 31.1656 53.3611 31.0821C53.3228 30.9803 53.2848 30.8785 53.2451 30.7775C53.2106 30.6893 53.1747 30.6021 53.1391 30.5145C53.1006 30.4195 53.0623 30.3247 53.0228 30.2303C52.9848 30.1397 52.9456 30.0497 52.9065 29.9596C52.8674 29.8693 52.8282 29.779 52.788 29.6892C52.747 29.5978 52.7053 29.507 52.6632 29.4162C52.6229 29.3289 52.5824 29.242 52.5412 29.1551C52.4976 29.0636 52.4532 28.9724 52.4084 28.8814C52.3668 28.7968 52.3251 28.7125 52.2825 28.6285C52.236 28.5365 52.1889 28.4448 52.1413 28.3534C52.0988 28.2719 52.0559 28.1908 52.0127 28.1098C51.9634 28.0173 51.9136 27.9253 51.8632 27.8336C51.82 27.7553 51.7762 27.6776 51.7323 27.5997C51.6796 27.5066 51.6269 27.4135 51.5731 27.321C51.5299 27.2466 51.4857 27.1729 51.4417 27.099C51.3856 27.0046 51.3293 26.9102 51.272 26.8164C51.2296 26.7474 51.1863 26.6792 51.1434 26.6105C51.0824 26.5133 51.0218 26.4159 50.9595 26.3194C50.9214 26.2603 50.8822 26.202 50.8435 26.1433C50.7747 26.0388 50.7063 25.934 50.636 25.8305C50.6173 25.8029 50.598 25.776 50.5791 25.7484C50.2977 25.3373 50.0043 24.935 49.6996 24.5418C49.677 24.5128 49.6551 24.4835 49.6324 24.4545C49.5472 24.3455 49.4602 24.2377 49.3731 24.1301C49.3386 24.0874 49.3047 24.0445 49.27 24.002C49.1859 23.8994 49.1005 23.7979 49.0147 23.6966C48.9758 23.6508 48.9375 23.6046 48.8983 23.5591C48.8134 23.4599 48.7272 23.3621 48.6407 23.2644C48.5995 23.2179 48.5586 23.1714 48.5173 23.1254C48.4301 23.0285 48.3421 22.9324 48.2535 22.8367C48.2117 22.7918 48.1703 22.7471 48.1282 22.7023C48.0381 22.6065 47.9472 22.5113 47.8555 22.4166C47.8142 22.3741 47.7731 22.3319 47.7315 22.2895C47.6374 22.194 47.5428 22.0991 47.4472 22.0049C47.4078 21.9661 47.3681 21.9275 47.3284 21.8889C47.2293 21.7926 47.1295 21.6967 47.029 21.602C46.9932 21.5684 46.9573 21.5353 46.9214 21.5019C46.8155 21.4034 46.7091 21.3054 46.6016 21.2087C46.5727 21.1827 46.5433 21.1572 46.5142 21.1313C46.3987 21.0283 46.2824 20.9258 46.1649 20.825C46.15 20.8122 46.1349 20.7998 46.1199 20.787C45.2802 20.0694 44.3931 19.4059 43.4637 18.8019C43.4617 18.8005 43.4598 18.7991 43.4576 18.7978C43.3112 18.7026 43.1635 18.6095 43.0149 18.5175C43 18.508 42.9852 18.4987 42.9702 18.4893C42.8276 18.4012 42.6839 18.315 42.5394 18.2297C42.5187 18.2175 42.4979 18.2052 42.4773 18.193C42.3355 18.1098 42.1924 18.028 42.0489 17.9475C42.0257 17.9346 42.0024 17.9215 41.979 17.9086C41.8353 17.8286 41.6907 17.7499 41.5451 17.6727C41.5229 17.6611 41.5008 17.6494 41.4784 17.6374C41.3306 17.5596 41.1819 17.483 41.0322 17.4078C41.0138 17.3985 40.9953 17.3896 40.9767 17.3803C40.822 17.3031 40.6661 17.2271 40.5095 17.153C40.4999 17.1486 40.4904 17.1441 40.481 17.1396C38.9495 16.4175 37.3346 15.845 35.6543 15.4413C35.6518 15.4407 35.6495 15.4401 35.6469 15.4394C35.4665 15.3962 35.2856 15.3551 35.1041 15.3157C35.0931 15.3132 35.0819 15.3108 35.0707 15.3085C34.8933 15.2703 34.7152 15.2341 34.5363 15.1998C34.522 15.1969 34.5075 15.1942 34.4932 15.1914C34.3157 15.1575 34.1375 15.1255 33.9587 15.0956C33.944 15.0931 33.9292 15.0907 33.9146 15.0882C33.734 15.0582 33.5529 15.0299 33.3714 15.0037C33.3612 15.0023 33.3509 15.0009 33.3407 14.9995C33.1535 14.9728 32.9655 14.9479 32.7769 14.9253V12.3946C34.8838 11.3006 36.3273 9.09911 36.3273 6.56548C36.3273 2.94506 33.3823 0 29.7619 0C26.1416 0 23.1965 2.94506 23.1965 6.56548C23.1965 9.09896 24.6399 11.3004 26.7468 12.3946V14.9253C26.7464 14.9253 26.746 14.9254 26.7457 14.9254C26.5581 14.9479 26.371 14.9727 26.1844 14.9993C26.1734 15.0009 26.1622 15.0025 26.1512 15.0039C25.9705 15.03 25.7903 15.0581 25.6109 15.0879C25.5948 15.0906 25.5789 15.0931 25.563 15.0959C25.3854 15.1257 25.2084 15.1577 25.0321 15.1911C25.0162 15.1942 25.0006 15.1971 24.9848 15.2002C24.8071 15.2344 24.63 15.2703 24.4537 15.3085C24.4417 15.311 24.4299 15.3137 24.4177 15.3162C24.2371 15.3554 24.0569 15.3964 23.8774 15.4393C23.8738 15.4402 23.8702 15.4412 23.8665 15.4421C22.1874 15.846 20.5732 16.418 19.0427 17.1398C19.0329 17.1442 19.0233 17.1488 19.0137 17.1534C18.8572 17.2274 18.7019 17.3031 18.5471 17.3803C18.5284 17.3896 18.5096 17.3987 18.491 17.4082C18.3417 17.4833 18.1929 17.5597 18.0453 17.6376C18.0229 17.6494 18.0007 17.6611 17.9781 17.673C17.8327 17.7502 17.6879 17.8289 17.5442 17.9089C17.5212 17.9217 17.498 17.9348 17.4752 17.9475C17.3315 18.0282 17.1885 18.1098 17.0466 18.1932C17.0256 18.2053 17.0048 18.2178 16.984 18.2301C16.8395 18.3153 16.696 18.4018 16.5534 18.4897C16.5385 18.4989 16.5239 18.5082 16.5094 18.5173C16.3606 18.6095 16.2127 18.7029 16.0661 18.7981C16.0641 18.7994 16.0622 18.8008 16.0601 18.8019C15.13 19.4065 14.2422 20.0705 13.4019 20.7887C13.3877 20.8007 13.3732 20.8125 13.3592 20.8248C13.2411 20.9263 13.1245 21.029 13.0084 21.1324C12.9797 21.1579 12.9509 21.183 12.9224 21.2087C12.8144 21.3056 12.7079 21.4038 12.6019 21.5026C12.5661 21.5356 12.5303 21.5687 12.4949 21.6021C12.394 21.697 12.2944 21.7928 12.1952 21.8892C12.1555 21.9277 12.1159 21.9663 12.0765 22.0051C11.9809 22.0993 11.886 22.1943 11.7918 22.2901C11.7505 22.3322 11.7095 22.3743 11.6684 22.4165C11.5772 22.5115 11.4861 22.6065 11.3958 22.7026ZM29.762 63.0454C17.0321 63.0454 6.67503 52.6885 6.67503 39.9584C6.67503 27.2283 17.0321 16.8716 29.762 16.8716C42.4921 16.8716 52.849 27.2283 52.849 39.9584C52.849 52.6885 42.4921 63.0454 29.762 63.0454ZM30.6498 14.375H28.8742V13.2425H30.6498V14.375ZM25.3239 6.5658C25.3239 4.11851 27.3149 2.12756 29.762 2.12756C32.2091 2.12756 34.2002 4.11851 34.2002 6.5658C34.2002 9.01276 32.2091 11.0039 29.762 11.0039C27.3149 11.0039 25.3239 9.01276 25.3239 6.5658Z" fill="#444444"/>
<path d="M30.351 39.37C30.1885 39.208 29.9753 39.1267 29.7624 39.1267C29.5491 39.1267 29.3362 39.208 29.1737 39.37C29.0164 39.5273 28.9301 39.7361 28.9301 39.9584C28.9301 40.1806 29.0168 40.3897 29.1737 40.5469C29.4986 40.8712 30.0262 40.8712 30.3511 40.5469C30.5079 40.3897 30.5947 40.1806 30.5947 39.9584C30.5947 39.7361 30.5081 39.527 30.351 39.37C30.3508 39.37 30.351 39.3703 30.351 39.37Z" fill="#7692FF"/>
<path d="M39.6927 48.4794L34.0587 36.1861C33.9525 35.9543 33.7667 35.7687 33.535 35.6625L21.2418 30.028C20.838 29.8427 20.3611 29.9282 20.0466 30.2428C19.7322 30.557 19.6465 31.0338 19.8319 31.4378L25.4661 43.7311C25.5724 43.9629 25.7581 44.1487 25.9899 44.2547L38.2831 49.8893C38.4252 49.9545 38.5758 49.986 38.726 49.986C39.0024 49.986 39.2744 49.8784 39.4783 49.6743C39.7925 49.3603 39.8782 48.8835 39.6927 48.4794ZM31.6668 41.8632C31.142 42.3884 30.452 42.6509 29.7624 42.6509C29.0725 42.6509 28.3827 42.3884 27.8578 41.8632C27.349 41.3544 27.0687 40.6781 27.0687 39.9586C27.0687 39.2391 27.349 38.5628 27.8578 38.054C28.9077 37.0041 30.6166 37.0041 31.6668 38.054C32.1757 38.5627 32.456 39.2393 32.456 39.9586C32.456 40.6779 32.1755 41.3544 31.6668 41.8632Z" fill="#7692FF"/>
<path d="M30.0003 20.9447C29.9119 20.9209 29.8206 20.9041 29.7247 20.9041C29.6276 20.9041 29.5353 20.9212 29.4458 20.9457C19.1054 21.1155 10.7453 29.5785 10.7453 39.9585C10.7453 50.4445 19.2764 58.9755 29.7622 58.9755C40.2481 58.9755 48.7792 50.4445 48.7792 39.9585C48.7792 39.9362 48.7784 39.9141 48.7784 39.8917C48.7784 39.8887 48.7792 39.8862 48.7792 39.8832C48.7792 39.8796 48.7781 39.8761 48.7781 39.8725C48.7318 29.5057 40.3482 21.0723 30.0003 20.9447ZM43.6875 40.9468H46.6206C46.128 49.4362 39.3378 56.2597 30.8634 56.8083V53.846C30.8634 53.2584 30.3874 52.7824 29.7998 52.7824C29.2122 52.7824 28.7362 53.2584 28.7362 53.846V56.8139C20.2518 56.3028 13.4395 49.5016 12.9096 41.022H15.837C16.4246 41.022 16.9006 40.546 16.9006 39.9584C16.9006 39.3708 16.4246 38.8948 15.837 38.8948H12.9096C13.4381 30.4406 20.2117 23.6556 28.661 23.1085V25.9954C28.661 26.583 29.1371 27.0591 29.7247 27.0591C30.3123 27.0591 30.7883 26.583 30.7883 25.9954V23.1028C39.2475 23.6126 46.0437 30.3752 46.6092 38.8194H43.6875C43.0999 38.8194 42.6239 39.2956 42.6239 39.8831C42.6239 40.4708 43.0999 40.9468 43.6875 40.9468Z" fill="#444444"/>
<path d="M32.7771 6.56594C32.7771 4.90339 31.4245 3.55078 29.762 3.55078C28.0995 3.55078 26.747 4.90339 26.747 6.56594C26.747 8.22818 28.0995 9.58079 29.762 9.58079C31.4245 9.58063 32.7771 8.22802 32.7771 6.56594ZM28.8743 6.56594C28.8743 6.07636 29.2725 5.67802 29.762 5.67802C30.2516 5.67802 30.6498 6.07621 30.6498 6.56594C30.6498 7.05521 30.2516 7.45355 29.762 7.45355C29.2725 7.45355 28.8743 7.05521 28.8743 6.56594Z" fill="#444444"/>
<path d="M54.936 28.6904L55.075 29.0205C55.2469 29.4261 55.6405 29.6692 56.0547 29.6692C56.1931 29.6692 56.3338 29.6421 56.4693 29.5848C57.0104 29.3557 57.2629 28.7312 57.0336 28.1904L56.8976 27.867C56.6928 27.3786 56.4375 26.7706 56.2486 26.3819C55.9919 25.8534 55.3559 25.6336 54.8271 25.8901C54.2988 26.147 54.0786 26.7836 54.3355 27.3117C54.4984 27.648 54.7513 28.2504 54.936 28.6904Z" fill="#444444"/>
<path d="M41.9327 14.9553C42.5983 15.293 43.2585 15.6614 43.8943 16.0503C44.5662 16.4611 45.2264 16.9039 45.8561 17.3662C46.8192 18.0731 47.7446 18.8474 48.6064 19.6674C49.3268 20.3535 50.0186 21.0865 50.6624 21.8457C51.189 22.4677 51.6931 23.1186 52.1605 23.7801C52.3675 24.0737 52.6962 24.2303 53.0301 24.2303C53.2422 24.2303 53.4563 24.1671 53.6428 24.0354C54.1227 23.6968 54.237 23.0332 53.898 22.5532C53.3952 21.8409 52.8527 21.1403 52.2857 20.4704C51.5929 19.6531 50.8485 18.8647 50.0732 18.1265C49.1461 17.2443 48.1508 16.4113 47.1149 15.651C46.4371 15.1537 45.727 14.6775 45.0044 14.2357C44.3202 13.8175 43.6107 13.4213 42.8954 13.0583C42.3714 12.7923 41.7314 13.0017 41.4656 13.5255C41.1998 14.0494 41.409 14.6897 41.9327 14.9553Z" fill="#444444"/>
<path d="M3.01572 53.1851C3.55415 54.2815 4.16601 55.356 4.83381 56.3789C5.23924 56.9999 5.67336 57.6143 6.12418 58.2047C7.12603 59.517 8.24448 60.7568 9.44819 61.8895C10.2825 62.6748 11.1706 63.4206 12.0882 64.1056C13.0673 64.8369 14.1013 65.5154 15.1616 66.1224C15.3285 66.2179 15.51 66.2633 15.6892 66.2633C16.0582 66.2633 16.4169 66.0709 16.6132 65.728C16.905 65.2182 16.7284 64.5682 16.2186 64.2766C15.2327 63.7121 14.2714 63.0812 13.3611 62.4014C12.5079 61.7644 11.6821 61.071 10.9062 60.3405C9.78666 59.287 8.74667 58.1343 7.81478 56.9141C7.39579 56.3651 6.99193 55.7939 6.61502 55.2163C5.99402 54.2652 5.42549 53.2667 4.92473 52.2476C4.66568 51.7202 4.02813 51.5026 3.50137 51.762C2.97413 52.0204 2.75652 52.6578 3.01572 53.1851Z" fill="#444444"/>
<path d="M22.4662 66.9056C21.6909 66.7069 21.4475 66.617 20.7964 66.377L20.4795 66.2605C19.9288 66.0585 19.3171 66.3414 19.1149 66.893C18.9129 67.4445 19.1961 68.0556 19.7476 68.2576L20.0599 68.3726C20.7447 68.6254 21.057 68.7405 21.9382 68.9665C22.0269 68.9892 22.1156 68.9999 22.2031 68.9999C22.6772 68.9999 23.1094 68.6807 23.2327 68.2001C23.3784 67.6308 23.0352 67.0514 22.4662 66.9056Z" fill="#444444"/>
<path d="M1.48094 49.3865C1.65159 49.7943 2.04647 50.0398 2.46247 50.0398C2.5994 50.0398 2.73838 50.0132 2.87264 49.9572C3.41438 49.7307 3.67012 49.1074 3.44321 48.5655C3.15517 47.8765 2.96955 47.2367 2.96781 47.2304C2.80567 46.6661 2.21744 46.3398 1.65222 46.5021C1.08763 46.6641 0.761294 47.2531 0.923281 47.8177C0.932105 47.8484 1.14278 48.5782 1.48094 49.3865Z" fill="#444444"/>
</svg>
