<svg width="92" height="72" viewBox="0 0 92 72" fill="none" xmlns="http://www.w3.org/2000/svg">
<path d="M87.4293 62.6809H8.32104C8.32104 57.0945 10.3915 52.0355 13.7512 48.3633C15.0208 46.9765 16.4858 45.785 18.107 44.8278C20.7049 43.3043 23.6934 42.4253 26.8578 42.4253H68.8926C72.0569 42.4253 75.0455 43.2847 77.6433 44.8278C83.4837 48.2461 87.4293 54.9654 87.4293 62.6809Z" stroke="#333333" stroke-width="3" stroke-miterlimit="10"/>
<path d="M47.8557 38.8507V42.4447H26.8578C23.6935 42.4447 20.7049 43.3042 18.1071 44.8473V38.8507C18.1071 31.8579 23.3028 26.1934 29.6901 26.1934H36.2727C42.6599 26.1934 47.8557 31.8579 47.8557 38.8507Z" stroke="#333333" stroke-width="3" stroke-miterlimit="10"/>
<path d="M77.6628 38.8507V44.8473C75.0454 43.3237 72.0764 42.4447 68.912 42.4447H47.8947V38.8507C47.8947 31.8579 53.0904 26.1934 59.4777 26.1934H66.0602C72.467 26.1934 77.6628 31.8579 77.6628 38.8507Z" stroke="#333333" stroke-width="3" stroke-miterlimit="10"/>
<path d="M87.4293 62.6809H8.32104V70.2206H87.4293V62.6809Z" stroke="#333333" stroke-width="3" stroke-miterlimit="10"/>
<path d="M8.32098 70.2207H3.49634" stroke="#333333" stroke-width="3" stroke-miterlimit="10"/>
<path d="M1.83609 70.2207H0" stroke="#333333" stroke-width="3" stroke-miterlimit="10"/>
<path d="M14.6106 57.2898H23.7324" stroke="#333333" stroke-width="3" stroke-miterlimit="10"/>
<path d="M25.7639 57.2898H28.0688" stroke="#333333" stroke-width="3" stroke-miterlimit="10"/>
<path d="M40.6633 45.9216L36.0535 47.7968C33.5533 48.8125 30.7015 47.6015 29.6858 45.1012L27.8107 40.4915C26.795 37.9913 28.006 35.1395 30.5062 34.1238L35.116 32.2486C37.6162 31.2329 40.468 32.444 41.4837 34.9442L43.3589 39.5539C44.3746 42.0346 43.1635 44.9059 40.6633 45.9216Z" fill="#7692FF"/>
<path d="M40.5503 46.6248L35.9405 48.4999C33.4403 49.5157 30.5885 48.3046 29.5728 45.8044L27.6976 41.1946C26.6819 38.6944 27.893 35.8426 30.3932 34.8269L35.0029 32.9518C37.5032 31.9361 40.355 33.1471 41.3707 35.6473L43.2458 40.2571C44.2616 42.7377 43.0505 45.6091 40.5503 46.6248Z" stroke="#333333" stroke-width="3" stroke-miterlimit="10"/>
<path d="M35.3546 5.56665H21.2909V19.6303H35.3546V5.56665Z" stroke="#333333" stroke-width="3" stroke-miterlimit="10"/>
<path d="M72.0764 5.56665H58.0127V19.6303H72.0764V5.56665Z" stroke="#333333" stroke-width="3" stroke-miterlimit="10"/>
</svg>
